<?xml version="1.0" encoding="iso-8859-1"?>
<!-- Generator: Adobe Illustrator 18.0.0, SVG Export Plug-In . SVG Version: 6.00 Build 0)  -->
<!DOCTYPE svg PUBLIC "-//W3C//DTD SVG 1.1//EN" "http://www.w3.org/Graphics/SVG/1.1/DTD/svg11.dtd">
<svg version="1.1" id="Capa_1" xmlns="http://www.w3.org/2000/svg" xmlns:xlink="http://www.w3.org/1999/xlink" x="0px" y="0px"
	 viewBox="0 0 478.765 478.765" style="enable-background:new 0 0 478.765 478.765;" xml:space="preserve">
<path d="M68.754,0C31.77,0,1.789,29.982,1.789,66.965V411.8c0,36.983,29.981,66.965,66.965,66.965h56.374v-175.11H93.377
	c-8.906,0-16.131-7.209-16.131-16.124v-47.54c0-8.907,7.225-16.125,16.131-16.125h31.751v-72.424
	c0-48.14,39.028-87.169,87.177-87.169h72.261c8.907,0,16.132,7.216,16.132,16.132v63.493c0,8.915-7.225,16.132-16.132,16.132h-47.54
	c-8.908,0-16.133,7.218-16.133,16.133v47.703h63.673c8.907,0,16.132,7.218,16.132,16.125v47.54c0,8.915-7.225,16.124-16.132,16.124
	h-63.673v175.11h189.119c36.983,0,66.965-29.982,66.965-66.965V66.965C476.976,29.982,446.995,0,410.011,0H68.754z"/>
<g>
</g>
<g>
</g>
<g>
</g>
<g>
</g>
<g>
</g>
<g>
</g>
<g>
</g>
<g>
</g>
<g>
</g>
<g>
</g>
<g>
</g>
<g>
</g>
<g>
</g>
<g>
</g>
<g>
</g>
</svg>
